<svg fill="none" height="16" viewBox="0 0 16 16" width="16" xmlns="http://www.w3.org/2000/svg"><path d="m13.1667 10.6674c0 .2734-.2267.5-.5.5h-8.12666l.81333.8134c.19334.1933.19334.5133 0 .7066-.1.1-.22666.1467-.35333.1467s-.25333-.0467-.35333-.1467l-1.66667-1.6666c-.04667-.0467-.08-.1-.10667-.16-.05333-.12-.05333-.26 0-.38.02667-.06.06-.1134.10667-.16l1.66667-1.66669c.19333-.19333.51333-.19333.70666 0 .19334.19334.19334.51334 0 .70667l-.81333.81332h8.12666c.2733 0 .5.2267.5.5zm-9.83333-4.83329h8.12663l-.8133.81334c-.1933.19333-.1933.51333 0 .70666.1.1.2267.14667.3533.14667.1267 0 .2534-.04667.3534-.14667l1.6666-1.66666c.0467-.04667.08-.1.1067-.16.0533-.12.0533-.26 0-.38-.0267-.06-.06-.11334-.1067-.16l-1.6666-1.66667c-.1934-.19333-.5134-.19333-.7067 0s-.1933.51333 0 .70667l.8133.81333h-8.12663c-.27333 0-.5.22667-.5.5s.22667.5.5.5z" fill="#000"/></svg>